<svg xmlns="http://www.w3.org/2000/svg" width="400" height="85.568" viewBox="0 0 400 85.568"><defs><style>.a{fill:#f7cd86;}.b{fill:#faabaa;}.c{fill:#7eaede;}.d{fill:#b99fe0;}.e{fill:#fff;}</style></defs><g transform="translate(2.857 2.874)"><path class="a" d="M11.862,0A11.862,11.862,0,0,1,23.724,11.862V66.888A11.862,11.862,0,1,1,0,66.888V11.862A11.862,11.862,0,0,1,11.862,0Z" transform="translate(22.904 3.091) rotate(-9.64)"/><path class="a" d="M11.862,0A11.862,11.862,0,0,1,23.724,11.862V66.888A11.862,11.862,0,1,1,0,66.888V11.862A11.862,11.862,0,0,1,11.862,0Z" transform="translate(55.967 3.091) rotate(-9.64)"/><rect class="b" width="23.724" height="83.047" rx="9" transform="translate(30.617 -2.871) rotate(23.77)"/><path class="c" d="M11.862,0A11.862,11.862,0,0,1,23.724,11.862V71.185A11.862,11.862,0,1,1,0,71.185V11.862A11.862,11.862,0,0,1,11.862,0Z" transform="translate(63.577 -2.87) rotate(23.77)"/><rect class="d" width="23.724" height="83.047" rx="9" transform="translate(96.587 -2.874) rotate(23.77)"/><path class="e" d="M102.062,18.726A.791.791,0,0,1,102.84,18h.593a.949.949,0,0,1,.975.646l9.727,20.982c.791,1.661,1.674,3.875,1.674,3.875h.211s.883-2.214,1.661-3.875l9.727-20.982A.975.975,0,0,1,128.4,18h.593a.791.791,0,0,1,.83.791l2.636,32.726c0,.58-.237.883-.83.883h-.448a.791.791,0,0,1-.83-.791l-2.056-25.45c-.158-1.674-.158-4.573-.158-4.573h-.092s-.989,2.9-1.766,4.573l-8.936,18.9a.949.949,0,0,1-.975.646h-.791a.949.949,0,0,1-.975-.646l-8.9-18.966c-.738-1.621-1.819-4.666-1.819-4.666h-.105s0,2.992-.145,4.666l-2.109,25.45a.791.791,0,0,1-.844.791H100.2c-.593,0-.844-.3-.844-.883Z" transform="translate(32.504 6.637)"/><path class="e" d="M140.463,18.649a.883.883,0,0,1,.936-.7h.883a.883.883,0,0,1,.923.7l12.284,32.713c.2.593,0,.988-.685.988h-.488a.923.923,0,0,1-.936-.646l-4.27-11.282H134.546l-4.178,11.2a.9.9,0,0,1-.936.685h-.54c-.633,0-.883-.4-.685-.988ZM148.371,38.5,143.1,24.541c-.54-1.476-1.318-4.125-1.318-4.125h-.105s-.738,2.636-1.318,4.125L135.086,38.5Z" transform="translate(41.656 6.621)"/><path class="e" d="M160.1,37.417,149.038,18.939c-.343-.54-.105-.988.58-.988h.593a1.147,1.147,0,0,1,.988.54L159,31.512c.988,1.674,2.122,3.954,2.122,3.954h.092s1.081-2.214,2.109-3.954L171.14,18.49a1.147,1.147,0,0,1,.988-.54h.58c.7,0,.936.448.593.988L162.244,37.39V51.506a.751.751,0,0,1-.83.844H160.9a.751.751,0,0,1-.83-.844Z" transform="translate(48.252 6.622)"/><path class="e" d="M172.192,18.795a.751.751,0,0,1,.83-.844h.488a1.2,1.2,0,0,1,1.041.54l19.2,26.439c1.133,1.568,2.807,4.323,2.807,4.323h.092s-.25-2.636-.25-4.323V18.795a.764.764,0,0,1,.844-.844h.435a.764.764,0,0,1,.844.844V51.507a.764.764,0,0,1-.844.844h-.488a1.16,1.16,0,0,1-1.028-.54L176.949,25.371c-1.12-1.568-2.794-4.323-2.794-4.323h-.105s.25,2.636.25,4.323V51.507a.751.751,0,0,1-.83.844h-.448a.751.751,0,0,1-.83-.844Z" transform="translate(55.662 6.621)"/><path class="e" d="M215.515,17.511a17.134,17.134,0,0,1,17.4,17.529c0,10.122-7.513,18.043-17.4,18.043s-17.384-7.908-17.384-18.043a17.134,17.134,0,0,1,17.384-17.529Zm0,33.556c8.7,0,15.183-6.985,15.183-16.027a15.183,15.183,0,1,0-30.314,0c-.04,9.041,6.445,16.066,15.131,16.066Z" transform="translate(63.911 6.482)"/><path class="e" d="M246.009,17.511A17.134,17.134,0,0,1,263.393,35.04c0,10.122-7.513,18.043-17.4,18.043s-17.384-7.908-17.384-18.043a17.134,17.134,0,0,1,17.4-17.529Zm0,33.556c8.7,0,15.183-6.985,15.183-16.027a15.183,15.183,0,1,0-30.314,0c-.053,9.041,6.445,16.066,15.131,16.066Z" transform="translate(73.603 6.482)"/><path class="e" d="M268.466,19.928H256.472a.751.751,0,0,1-.83-.844v-.29a.751.751,0,0,1,.83-.844h26.1a.751.751,0,0,1,.83.844v.29a.751.751,0,0,1-.83.844H270.614V51.56a.751.751,0,0,1-.83.844H269.3a.751.751,0,0,1-.83-.844Z" transform="translate(82.198 6.621)"/><path class="e" d="M280.841,18.795a.751.751,0,0,1,.83-.844h.448a.751.751,0,0,1,.83.844V34.123h21.826V18.795a.765.765,0,0,1,.83-.844h.488a.751.751,0,0,1,.83.844V51.507a.751.751,0,0,1-.83.844h-.448a.764.764,0,0,1-.83-.844V36.087H282.95V51.507a.751.751,0,0,1-.83.844h-.448a.751.751,0,0,1-.83-.844Z" transform="translate(90.212 6.621)"/></g></svg>