<svg id="Layer_1" data-name="Layer 1" xmlns="http://www.w3.org/2000/svg" viewBox="0 0 471.52 85.56"><defs><style>.cls-1,.cls-2,.cls-5{isolation:isolate;}.cls-2,.cls-5{font-size:69px;font-family:BrandonGrotesque-Black, Brandon Grotesque;font-weight:800;}.cls-3{letter-spacing:-0.01em;}.cls-4{letter-spacing:0em;}.cls-5{fill:#ffab15;}</style></defs><g id="Group_348" data-name="Group 348"><g id="ROAR_BIKES_LOGO" data-name="ROAR BIKES LOGO"><path id="Path_12" data-name="Path 12" d="M82.15,140.63a7.19,7.19,0,0,0,1.56-.6c.06,1,.25,3.62-1.62,5-.24-.18-.55-.3-.73-.42l.79-4ZM51,128.75a13.76,13.76,0,0,1,3.8-2.83C41.75,143.59,67.38,154.86,62,170c4.28-2.35,6.51-6,6.63-10,.37-10.37-15.61-13.14-7-28.4-3.26,10.25-.3,13.87,7,19.3-1.32-3.2.55-7.84,4.46-10.25l-5.9-2.47,8.14,2.05c-3.68,1.87-7.18,8.08-4.16,11.45,2,2.23,5.9.79,7.6,5,2.35-1.39,2.47-3.07,2.65-5.3a5,5,0,0,1,.54,3.07c2.47-2.35,2.17-7.3-1.26-8.86a18,18,0,0,0-3.86,1.63c-2,1-1.09,2.23-3.62,2.05,0,0-1-.9,2.47-2.72a27.7,27.7,0,0,1,4.58-2l.79-3.92a5.91,5.91,0,0,0-1.45-1.5c-.72-.6-1.87-1.21-2.65-1.81-.3-.24-.73-.3-.79-.55.6-1.26,3.86-.84,5.13-.72a7.9,7.9,0,0,1,2.17-.18c-2.47-2.29-8.8-6.93-11.76-9.22a18.11,18.11,0,0,0-2.23-4.16,8.71,8.71,0,0,1,3,3.67l1.68,1.09c1-5.91-1.14-15.8-11.93-14.89a9.26,9.26,0,0,1,2.89,5.36c-11.51-16.15-35.45-3.2-34.24,11.34.78-1.57,5.6-6.39,9.88-6.93-9.29,5.61-18.27,18.81-9,29.72C29,142.68,34.64,132.73,41.39,129c-19.83,21.59.06,32,7.42,44.26,7.3-14-19.36-16.28-9.29-37.08-3.5,13.5,3.74,20,10.55,24.48-6.27-9.47-5.54-20.32-.12-30.15-4.28,3.68-8,9.1-7.35,18-2.17-7.54.48-14.29,6-19.24-3.74-4.34-3.08-11.57,2.65-12.9a7.17,7.17,0,0,1,7.84,4.29c-5.73-7.78-16.58.18-8.08,8.13Zm-13.81-8.68c5.25-8,17.6-9.95,24-3C53.09,111.75,43.51,114.34,37.23,120.07Zm21.34,28.16c-6-9.29-6.45-18.27,3.08-24.84C53.27,132.19,55.26,140,58.57,148.23ZM49.41,137.8c1,13.5,17.18,23,9.53,37.44C57.19,164,43.2,155.76,49.41,137.8Zm8.2-16.4c-1.51,1.45-3.5.06-7.11,2.35C49.71,118.38,56.1,118.62,57.61,121.4Zm11.45,7.47c.9.37,5.43,5.73,6.09,6.88-2.11-1.81-3.86-3.38-6.21-5.13l-1.81.79.37-1.09-3.8-1.08,3.13-1.15c1.51-.54,1-1.21.3-2,1.27.36,2.35,1,1.93,2.77Zm-.54,42.63a9.17,9.17,0,0,0-.06-5.72c1.87-3.38,2.71-8.45,1.09-12C76.48,158.78,78.17,168.3,68.52,171.5Z" transform="translate(-27.9 -101.14)"/></g><g id="ROARBIKES" class="cls-1"><text class="cls-2" transform="translate(89.68 58.65)">R<tspan class="cls-3" x="46.23" y="0">O</tspan><tspan class="cls-4" x="100.26" y="0">AR</tspan></text><text class="cls-5" transform="translate(281.85 58.65)">BIKES</text></g></g></svg>