<?xml version="1.0" encoding="utf-8"?>
<!-- Generator: Adobe Illustrator 24.2.0, SVG Export Plug-In . SVG Version: 6.00 Build 0)  -->
<svg version="1.1" id="Layer_1" xmlns="http://www.w3.org/2000/svg" xmlns:xlink="http://www.w3.org/1999/xlink" x="0px" y="0px"
	 viewBox="0 0 471.5 85.6" style="enable-background:new 0 0 471.5 85.6;" xml:space="preserve">
<style type="text/css">
	.st0{enable-background:new    ;}
	.st1{fill:#FFAB15;}
</style>
<g id="Group_348">
	<g id="ROAR_BIKES_LOGO">
		<g id="Path_12">
			<path d="M54.3,39.5c0.5-0.1,1.1-0.3,1.6-0.6c0.1,1,0.3,3.6-1.6,5c-0.2-0.2-0.6-0.3-0.7-0.4L54.3,39.5L54.3,39.5z M23.1,27.6
				c1.1-1.2,2.4-2.1,3.8-2.8c-13,17.7,12.6,28.9,7.2,44.1c4.3-2.4,6.5-6,6.6-10c0.4-10.4-15.6-13.1-7-28.4
				c-3.3,10.3-0.3,13.9,7,19.3c-1.3-3.2,0.6-7.8,4.5-10.3L39.3,37l8.1,2.1c-3.7,1.9-7.2,8.1-4.2,11.4c2,2.2,5.9,0.8,7.6,5
				c2.3-1.4,2.5-3.1,2.7-5.3c0.5,0.9,0.7,2,0.5,3.1c2.5-2.4,2.2-7.3-1.3-8.9c-1.3,0.4-2.6,0.9-3.9,1.6c-2,1-1.1,2.2-3.6,2.1
				c0,0-1-0.9,2.5-2.7c1.5-0.8,3-1.5,4.6-2l0.8-3.9c-0.4-0.6-0.9-1.1-1.4-1.5c-0.7-0.6-1.9-1.2-2.7-1.8c-0.3-0.2-0.7-0.3-0.8-0.6
				c0.6-1.3,3.9-0.8,5.1-0.7c0.7-0.2,1.4-0.2,2.2-0.2c-2.5-2.3-8.8-6.9-11.8-9.2c-0.6-1.5-1.3-2.9-2.2-4.2c1.3,0.9,2.4,2.2,3,3.7
				l1.7,1.1c1-5.9-1.1-15.8-11.9-14.9c1.5,1.4,2.6,3.3,2.9,5.4C25.7,0.4,1.8,13.4,3,27.9c0.8-1.6,5.6-6.4,9.9-6.9
				c-9.3,5.6-18.3,18.8-9,29.7c-2.8-9.2,2.9-19.1,9.6-22.9c-19.8,21.6,0.1,32,7.4,44.3c7.3-14-19.4-16.3-9.3-37.1
				c-3.5,13.5,3.7,20,10.5,24.5C15.9,50,16.6,39.2,22,29.4c-4.3,3.7-8,9.1-7.3,18c-2.2-7.5,0.5-14.3,6-19.2
				c-3.7-4.3-3.1-11.6,2.7-12.9c3.3-0.6,6.5,1.2,7.8,4.3C25.5,11.7,14.6,19.7,23.1,27.6L23.1,27.6z M9.3,18.9c5.3-8,17.6-9.9,24-3
				C25.2,10.6,15.6,13.2,9.3,18.9L9.3,18.9z M30.6,47.1c-6-9.3-6.5-18.3,3.1-24.8C25.4,31.1,27.4,38.9,30.6,47.1L30.6,47.1z
				 M21.5,36.7c1,13.5,17.2,23,9.5,37.4C29.3,62.9,15.3,54.6,21.5,36.7z M29.7,20.3c-1.5,1.4-3.5,0.1-7.1,2.3
				C21.8,17.2,28.2,17.5,29.7,20.3z M41.2,27.7c0.9,0.4,5.4,5.7,6.1,6.9c-2.1-1.8-3.9-3.4-6.2-5.1l-1.8,0.8l0.4-1.1l-3.8-1.1
				l3.1-1.1c1.5-0.5,1-1.2,0.3-2C40.5,25.3,41.6,25.9,41.2,27.7L41.2,27.7z M40.6,70.4c0.6-1.9,0.6-3.9-0.1-5.7
				c1.9-3.4,2.7-8.4,1.1-12C48.6,57.6,50.3,67.2,40.6,70.4z"/>
		</g>
	</g>
	<g id="ROARBIKES">
		<g class="st0">
			<path d="M95.6,11.7c0-0.7,0.6-1.3,1.3-1.3h20.6c8.3,0,15,6.7,15,14.9c0,6.3-4.2,11.5-10.2,13.9l9.5,17.5c0.5,0.9,0,2-1.2,2h-9.2
				c-0.6,0-1-0.3-1.1-0.6l-9.2-18.3h-4.8v17.6c0,0.7-0.6,1.3-1.3,1.3h-8.2c-0.8,0-1.3-0.6-1.3-1.3V11.7z M116.7,31
				c2.8,0,5.2-2.6,5.2-5.5c0-2.9-2.4-5.2-5.2-5.2h-10.2V31H116.7z"/>
		</g>
		<g class="st0">
			<path d="M163.1,9.7c13.8,0,24.8,11.1,24.8,24.9c0,13.8-11,24.8-24.8,24.8c-13.8,0-24.8-11-24.8-24.8
				C138.3,20.8,149.3,9.7,163.1,9.7z M163.1,48.3c7.6,0,13.8-6.2,13.8-13.7c0-7.6-6.2-13.9-13.8-13.9c-7.5,0-13.7,6.3-13.7,13.9
				C149.4,42.1,155.6,48.3,163.1,48.3z"/>
		</g>
		<g class="st0">
			<path d="M189.7,56.9l21.6-46.4c0.2-0.4,0.7-0.8,1.2-0.8h0.7c0.5,0,1,0.3,1.2,0.8l21.6,46.4c0.4,0.9-0.1,1.8-1.2,1.8h-7.7
				c-1.2,0-1.8-0.4-2.4-1.7l-2.5-5.5h-18.8l-2.5,5.5c-0.3,0.8-1.1,1.7-2.5,1.7h-7.6C189.8,58.7,189.3,57.8,189.7,56.9z M218,42.1
				l-5.2-11.4h-0.1l-5.2,11.4H218z"/>
			<path d="M241.6,11.7c0-0.7,0.6-1.3,1.3-1.3h20.6c8.3,0,15,6.7,15,14.9c0,6.3-4.2,11.5-10.2,13.9l9.5,17.5c0.5,0.9,0,2-1.2,2h-9.2
				c-0.6,0-1-0.3-1.1-0.6l-9.2-18.3h-4.8v17.6c0,0.7-0.6,1.3-1.3,1.3h-8.2c-0.8,0-1.3-0.6-1.3-1.3V11.7z M262.6,31
				c2.8,0,5.2-2.6,5.2-5.5c0-2.9-2.4-5.2-5.2-5.2h-10.2V31H262.6z"/>
		</g>
		<g class="st0">
			<path class="st1" d="M287.8,11.7c0-0.7,0.6-1.3,1.3-1.3h16.1c8.1,0,14.8,5.6,14.8,12.8c0,5.3-4.8,9.2-8,10.9
				c3.7,1.5,9.2,4.9,9.2,11.2c0,7.7-6.8,13.3-15,13.3h-17.1c-0.8,0-1.3-0.6-1.3-1.3V11.7z M303.9,29.9c2.6,0,4.8-2.2,4.8-5
				s-2.2-4.7-4.8-4.7h-5.4v9.7H303.9z M304.8,48.8c2.7,0,5-2.2,5-5c0-2.8-3-4.8-5.7-4.8h-5.6v9.9H304.8z"/>
			<path class="st1" d="M330,11.7c0-0.7,0.6-1.3,1.3-1.3h8.3c0.7,0,1.3,0.6,1.3,1.3v45.7c0,0.7-0.6,1.3-1.3,1.3h-8.3
				c-0.7,0-1.3-0.6-1.3-1.3V11.7z"/>
			<path class="st1" d="M352.8,12c0-0.9,0.7-1.7,1.7-1.7h8.1c0.9,0,1.7,0.8,1.7,1.7v18.1L379.5,11c0.3-0.3,0.9-0.7,1.3-0.7h8.7
				c1.3,0,2,1.5,1.2,2.6l-16.1,20.2L392.2,56c0.8,1,0,2.6-1.3,2.6h-9.5c-0.5,0-1.1-0.3-1.2-0.5l-15.9-21.7V57c0,0.9-0.8,1.7-1.7,1.7
				h-8.1c-1,0-1.7-0.8-1.7-1.7V12z"/>
			<path class="st1" d="M399.2,11.7c0-0.7,0.6-1.3,1.3-1.3h28.6c0.8,0,1.3,0.6,1.3,1.3v7.5c0,0.7-0.6,1.3-1.3,1.3H410V29h15.7
				c0.7,0,1.3,0.6,1.3,1.3v7.5c0,0.8-0.6,1.3-1.3,1.3H410v9.3h19.1c0.8,0,1.3,0.6,1.3,1.3v7.5c0,0.7-0.6,1.3-1.3,1.3h-28.6
				c-0.8,0-1.3-0.6-1.3-1.3V11.7z"/>
			<path class="st1" d="M436.9,52.1l3.2-5.7c0.6-0.9,1.9-0.8,2.3-0.4c0.3,0.1,5.2,3.8,9.8,3.8c2.8,0,4.8-1.7,4.8-4.1
				c0-2.9-2.4-5.1-7.1-7c-5.9-2.3-13.4-7-13.4-15.2c0-6.8,5.3-13.7,15.9-13.7c7.2,0,12.7,3.7,14.8,5.2c0.8,0.5,0.7,1.7,0.4,2.2
				l-3.5,5.3c-0.5,0.8-1.7,1.4-2.3,0.9c-0.6-0.3-5.7-4.1-9.9-4.1c-2.5,0-4.3,1.7-4.3,3.5c0,2.6,2.1,4.5,7.5,6.7
				c5.4,2.1,13.9,6.3,13.9,15.7c0,7.1-6.1,14.3-16.3,14.3c-9,0-13.9-3.7-15.5-5.3C436.5,53.3,436.3,53.1,436.9,52.1z"/>
		</g>
	</g>
</g>
</svg>
