<svg id="Layer_1" data-name="Layer 1" xmlns="http://www.w3.org/2000/svg" viewBox="0 0 1077 518"><defs><style>.cls-1{fill:#5f5b6b;}.cls-2,.cls-8{fill:none;stroke:#5f5b6b;stroke-width:3px;}.cls-3,.cls-6{fill:#fafafa;}.cls-4{fill:#ffab15;}.cls-5,.cls-6,.cls-7{isolation:isolate;}.cls-6,.cls-7{font-size:16px;font-family:OpenSans, Open Sans;}.cls-7{fill:#323031;}.cls-8{stroke-linecap:square;}</style></defs><g id="Information_Architecture_Graph" data-name="Information Architecture Graph"><g id="Rectangle_862" data-name="Rectangle 862"><path class="cls-1" d="M861.68,437.84h93a14.5,14.5,0,0,1,14.5,14.5h0a14.5,14.5,0,0,1-14.5,14.5h-93a14.5,14.5,0,0,1-14.5-14.5h0A14.5,14.5,0,0,1,861.68,437.84Z" transform="translate(-421.18 -280.84)"/><path class="cls-2" d="M861.68,439.34h93a13,13,0,0,1,13,13h0a13,13,0,0,1-13,13h-93a13,13,0,0,1-13-13h0A13,13,0,0,1,861.68,439.34Z" transform="translate(-421.18 -280.84)"/></g><g id="Rectangle_880" data-name="Rectangle 880"><path class="cls-3" d="M1389.18,335.84h95a14,14,0,0,1,14,14h0a14,14,0,0,1-14,14h-95a14,14,0,0,1-14-14h0A14,14,0,0,1,1389.18,335.84Z" transform="translate(-421.18 -280.84)"/><path class="cls-2" d="M1389.18,337.34h95a12.5,12.5,0,0,1,12.5,12.5h0a12.49,12.49,0,0,1-12.5,12.5h-95a12.5,12.5,0,0,1-12.5-12.5h0A12.5,12.5,0,0,1,1389.18,337.34Z" transform="translate(-421.18 -280.84)"/></g><g id="Rectangle_881" data-name="Rectangle 881"><path class="cls-3" d="M1389.68,280.84h94a14.5,14.5,0,0,1,14.5,14.5h0a14.5,14.5,0,0,1-14.5,14.5h-94a14.5,14.5,0,0,1-14.5-14.5h0A14.5,14.5,0,0,1,1389.68,280.84Z" transform="translate(-421.18 -280.84)"/><path class="cls-2" d="M1389.68,282.34h94a13,13,0,0,1,13,13h0a13,13,0,0,1-13,13h-94a13,13,0,0,1-13-13h0A13,13,0,0,1,1389.68,282.34Z" transform="translate(-421.18 -280.84)"/></g><line id="Line_8" data-name="Line 8" class="cls-2" x1="487.5" y1="183.5" x2="487" y2="325.5"/><g id="Rectangle_865" data-name="Rectangle 865"><path class="cls-4" d="M1267.68,605.84h93a14.5,14.5,0,0,1,14.5,14.5h0a14.5,14.5,0,0,1-14.5,14.5h-93a14.5,14.5,0,0,1-14.5-14.5h0A14.5,14.5,0,0,1,1267.68,605.84Z" transform="translate(-421.18 -280.84)"/><path class="cls-2" d="M1267.68,607.34h93a13,13,0,0,1,13,13h0a13,13,0,0,1-13,13h-93a13,13,0,0,1-13-13h0A13,13,0,0,1,1267.68,607.34Z" transform="translate(-421.18 -280.84)"/></g><g id="Rectangle_867" data-name="Rectangle 867"><path class="cls-4" d="M861.68,605.84h93a14.5,14.5,0,0,1,14.5,14.5h0a14.5,14.5,0,0,1-14.5,14.5h-93a14.5,14.5,0,0,1-14.5-14.5h0A14.5,14.5,0,0,1,861.68,605.84Z" transform="translate(-421.18 -280.84)"/><path class="cls-2" d="M861.68,607.34h93a13,13,0,0,1,13,13h0a13,13,0,0,1-13,13h-93a13,13,0,0,1-13-13h0A13,13,0,0,1,861.68,607.34Z" transform="translate(-421.18 -280.84)"/></g><g id="Rectangle_870" data-name="Rectangle 870"><path class="cls-3" d="M861.18,660.84h94a14,14,0,0,1,14,14h0a14,14,0,0,1-14,14h-94a14,14,0,0,1-14-14h0A14,14,0,0,1,861.18,660.84Z" transform="translate(-421.18 -280.84)"/><path class="cls-2" d="M861.18,662.34h94a12.5,12.5,0,0,1,12.5,12.5h0a12.49,12.49,0,0,1-12.5,12.5h-94a12.5,12.5,0,0,1-12.5-12.5h0A12.5,12.5,0,0,1,861.18,662.34Z" transform="translate(-421.18 -280.84)"/></g><g id="Rectangle_874" data-name="Rectangle 874"><path class="cls-3" d="M861.68,714.84h93a14.5,14.5,0,0,1,14.5,14.5h0a14.5,14.5,0,0,1-14.5,14.5h-93a14.5,14.5,0,0,1-14.5-14.5h0A14.5,14.5,0,0,1,861.68,714.84Z" transform="translate(-421.18 -280.84)"/><path class="cls-2" d="M861.68,716.34h93a13,13,0,0,1,13,13h0a13,13,0,0,1-13,13h-93a13,13,0,0,1-13-13h0A13,13,0,0,1,861.68,716.34Z" transform="translate(-421.18 -280.84)"/></g><g id="Rectangle_866" data-name="Rectangle 866"><path class="cls-4" d="M1063.68,604.84h94a14.5,14.5,0,0,1,14.5,14.5h0a14.5,14.5,0,0,1-14.5,14.5h-94a14.5,14.5,0,0,1-14.5-14.5h0A14.5,14.5,0,0,1,1063.68,604.84Z" transform="translate(-421.18 -280.84)"/><path class="cls-2" d="M1063.68,606.34h94a13,13,0,0,1,13,13h0a13,13,0,0,1-13,13h-94a13,13,0,0,1-13-13h0A13,13,0,0,1,1063.68,606.34Z" transform="translate(-421.18 -280.84)"/></g><g id="Rectangle_871" data-name="Rectangle 871"><path class="cls-3" d="M1063.18,660.84h95a14,14,0,0,1,14,14h0a14,14,0,0,1-14,14h-95a14,14,0,0,1-14-14h0A14,14,0,0,1,1063.18,660.84Z" transform="translate(-421.18 -280.84)"/><path class="cls-2" d="M1063.18,662.34h95a12.5,12.5,0,0,1,12.5,12.5h0a12.49,12.49,0,0,1-12.5,12.5h-95a12.5,12.5,0,0,1-12.5-12.5h0A12.5,12.5,0,0,1,1063.18,662.34Z" transform="translate(-421.18 -280.84)"/></g><line id="Line_11" data-name="Line 11" class="cls-2" x1="284" y1="325.5" x2="284.5" y2="256.5"/><g id="Rectangle_868" data-name="Rectangle 868"><path class="cls-4" d="M658.68,605.84h93a14.5,14.5,0,0,1,14.5,14.5h0a14.5,14.5,0,0,1-14.5,14.5h-93a14.5,14.5,0,0,1-14.5-14.5h0A14.5,14.5,0,0,1,658.68,605.84Z" transform="translate(-421.18 -280.84)"/><path class="cls-2" d="M658.68,607.34h93a13,13,0,0,1,13,13h0a13,13,0,0,1-13,13h-93a13,13,0,0,1-13-13h0A13,13,0,0,1,658.68,607.34Z" transform="translate(-421.18 -280.84)"/></g><g id="Rectangle_872" data-name="Rectangle 872"><path class="cls-3" d="M658.18,660.84h94a14,14,0,0,1,14,14h0a14,14,0,0,1-14,14h-94a14,14,0,0,1-14-14h0A14,14,0,0,1,658.18,660.84Z" transform="translate(-421.18 -280.84)"/><path class="cls-2" d="M658.18,662.34h94a12.5,12.5,0,0,1,12.5,12.5h0a12.49,12.49,0,0,1-12.5,12.5h-94a12.5,12.5,0,0,1-12.5-12.5h0A12.5,12.5,0,0,1,658.18,662.34Z" transform="translate(-421.18 -280.84)"/></g><g id="Rectangle_875" data-name="Rectangle 875"><path class="cls-3" d="M658.68,714.84h93a14.5,14.5,0,0,1,14.5,14.5h0a14.5,14.5,0,0,1-14.5,14.5h-93a14.5,14.5,0,0,1-14.5-14.5h0A14.5,14.5,0,0,1,658.68,714.84Z" transform="translate(-421.18 -280.84)"/><path class="cls-2" d="M658.68,716.34h93a13,13,0,0,1,13,13h0a13,13,0,0,1-13,13h-93a13,13,0,0,1-13-13h0A13,13,0,0,1,658.68,716.34Z" transform="translate(-421.18 -280.84)"/></g><g id="Rectangle_877" data-name="Rectangle 877"><path class="cls-3" d="M658.68,769.84h93a14.5,14.5,0,0,1,14.5,14.5h0a14.5,14.5,0,0,1-14.5,14.5h-93a14.5,14.5,0,0,1-14.5-14.5h0A14.5,14.5,0,0,1,658.68,769.84Z" transform="translate(-421.18 -280.84)"/><path class="cls-2" d="M658.68,771.34h93a13,13,0,0,1,13,13h0a13,13,0,0,1-13,13h-93a13,13,0,0,1-13-13h0A13,13,0,0,1,658.68,771.34Z" transform="translate(-421.18 -280.84)"/></g><g id="Rectangle_879" data-name="Rectangle 879"><path class="cls-3" d="M1389.68,437.84h94a14.5,14.5,0,0,1,14.5,14.5h0a14.5,14.5,0,0,1-14.5,14.5h-94a14.5,14.5,0,0,1-14.5-14.5h0A14.5,14.5,0,0,1,1389.68,437.84Z" transform="translate(-421.18 -280.84)"/><path class="cls-2" d="M1389.68,439.34h94a13,13,0,0,1,13,13h0a13,13,0,0,1-13,13h-94a13,13,0,0,1-13-13h0A13,13,0,0,1,1389.68,439.34Z" transform="translate(-421.18 -280.84)"/></g><g id="Home" class="cls-5"><text class="cls-6" transform="translate(464.34 178)">Home</text></g><g id="Siamese_1" data-name="Siamese 1" class="cls-5"><text class="cls-6" transform="translate(449.25 346)">Siamese 1</text></g><g id="Sphynx_1" data-name="Sphynx 1" class="cls-5"><text class="cls-6" transform="translate(250.01 346)">Sphynx 1</text></g><g id="Sphynx_2" data-name="Sphynx 2" class="cls-5"><text class="cls-7" transform="translate(250.01 400)">Sphynx 2</text></g><g id="Sphynx_3" data-name="Sphynx 3" class="cls-5"><text class="cls-7" transform="translate(250.01 455)">Sphynx 3</text></g><g id="Sphynx_4" data-name="Sphynx 4" class="cls-5"><text class="cls-7" transform="translate(250.01 510)">Sphynx 4</text></g><line id="Line_9" data-name="Line 9" class="cls-2" x1="81.5" y1="256.5" x2="893.5" y2="256.5"/><path id="Path_262" data-name="Path 262" class="cls-8" d="M502.68,606.34v-69" transform="translate(-421.18 -280.84)"/><g id="Rectangle_869" data-name="Rectangle 869"><path class="cls-4" d="M455.68,605.84h94a14.5,14.5,0,0,1,14.5,14.5h0a14.5,14.5,0,0,1-14.5,14.5h-94a14.5,14.5,0,0,1-14.5-14.5h0A14.5,14.5,0,0,1,455.68,605.84Z" transform="translate(-421.18 -280.84)"/><path class="cls-2" d="M455.68,607.34h94a13,13,0,0,1,13,13h0a13,13,0,0,1-13,13h-94a13,13,0,0,1-13-13h0A13,13,0,0,1,455.68,607.34Z" transform="translate(-421.18 -280.84)"/></g><g id="Rectangle_873" data-name="Rectangle 873"><path class="cls-3" d="M455.18,660.84h95a14,14,0,0,1,14,14h0a14,14,0,0,1-14,14h-95a14,14,0,0,1-14-14h0A14,14,0,0,1,455.18,660.84Z" transform="translate(-421.18 -280.84)"/><path class="cls-2" d="M455.18,662.34h95a12.5,12.5,0,0,1,12.5,12.5h0a12.49,12.49,0,0,1-12.5,12.5h-95a12.5,12.5,0,0,1-12.5-12.5h0A12.5,12.5,0,0,1,455.18,662.34Z" transform="translate(-421.18 -280.84)"/></g><g id="Rectangle_876" data-name="Rectangle 876"><path class="cls-3" d="M455.68,714.84h94a14.5,14.5,0,0,1,14.5,14.5h0a14.5,14.5,0,0,1-14.5,14.5h-94a14.5,14.5,0,0,1-14.5-14.5h0A14.5,14.5,0,0,1,455.68,714.84Z" transform="translate(-421.18 -280.84)"/><path class="cls-2" d="M455.68,716.34h94a13,13,0,0,1,13,13h0a13,13,0,0,1-13,13h-94a13,13,0,0,1-13-13h0A13,13,0,0,1,455.68,716.34Z" transform="translate(-421.18 -280.84)"/></g><g id="Rectangle_878" data-name="Rectangle 878"><path class="cls-3" d="M455.68,769.84h94a14.5,14.5,0,0,1,14.5,14.5h0a14.5,14.5,0,0,1-14.5,14.5h-94a14.5,14.5,0,0,1-14.5-14.5h0A14.5,14.5,0,0,1,455.68,769.84Z" transform="translate(-421.18 -280.84)"/><path class="cls-2" d="M455.68,771.34h94a13,13,0,0,1,13,13h0a13,13,0,0,1-13,13h-94a13,13,0,0,1-13-13h0A13,13,0,0,1,455.68,771.34Z" transform="translate(-421.18 -280.84)"/></g><line id="Line_12" data-name="Line 12" class="cls-2" x1="689.5" y1="325.5" x2="689.5" y2="256.5"/><g id="Bengal_1" data-name="Bengal 1" class="cls-5"><text class="cls-6" transform="translate(49.91 346)">Bengal 1</text></g><g id="Bengal_2" data-name="Bengal 2" class="cls-5"><text class="cls-7" transform="translate(49.91 400)">Bengal 2</text></g><g id="Bengal_3" data-name="Bengal 3" class="cls-5"><text class="cls-7" transform="translate(49.91 455)">Bengal 3</text></g><g id="Bengal_4" data-name="Bengal 4" class="cls-5"><text class="cls-7" transform="translate(49.91 510)">Bengal 4</text></g><line id="Line_13" data-name="Line 13" class="cls-2" x1="893.5" y1="256.5" x2="893.5" y2="325.5"/><line id="Line_14" data-name="Line 14" class="cls-2" x1="427.5" y1="394.5" x2="406.5" y2="394.5"/><line id="Line_38" data-name="Line 38" class="cls-2" x1="427.5" y1="339.5" x2="406.5" y2="339.5"/><line id="Line_31" data-name="Line 31" class="cls-2" x1="628.5" y1="339.5" x2="607.5" y2="339.5"/><line id="Line_15" data-name="Line 15" class="cls-2" x1="427.5" y1="449.5" x2="406.5" y2="449.5"/><line id="Line_32" data-name="Line 32" class="cls-2" x1="628.5" y1="394.5" x2="607.5" y2="394.5"/><line id="Line_20" data-name="Line 20" class="cls-2" x1="22.5" y1="394.5" x2="1.5" y2="394.5"/><line id="Line_34" data-name="Line 34" class="cls-2" x1="22.5" y1="339.5" x2="1.5" y2="339.5"/><line id="Line_27" data-name="Line 27" class="cls-2" x1="223.5" y1="394.5" x2="202.5" y2="394.5"/><line id="Line_35" data-name="Line 35" class="cls-2" x1="223.5" y1="339.5" x2="202.5" y2="339.5"/><line id="Line_22" data-name="Line 22" class="cls-2" x1="22.5" y1="449.5" x2="1.5" y2="449.5"/><line id="Line_28" data-name="Line 28" class="cls-2" x1="223.5" y1="449.5" x2="202.5" y2="449.5"/><line id="Line_24" data-name="Line 24" class="cls-2" x1="22.5" y1="504.5" x2="1.5" y2="504.5"/><line id="Line_29" data-name="Line 29" class="cls-2" x1="223.5" y1="504.5" x2="202.5" y2="504.5"/><line id="Line_16" data-name="Line 16" class="cls-8" x1="406.5" y1="394.5" x2="406.5" y2="449.5"/><line id="Line_37" data-name="Line 37" class="cls-8" x1="406.5" y1="339.5" x2="406.5" y2="394.5"/><line id="Line_30" data-name="Line 30" class="cls-8" x1="607.5" y1="339.5" x2="607.5" y2="394.5"/><line id="Line_21" data-name="Line 21" class="cls-8" x1="1.5" y1="394.5" x2="1.5" y2="449.5"/><line id="Line_33" data-name="Line 33" class="cls-8" x1="1.5" y1="339.5" x2="1.5" y2="394.5"/><line id="Line_25" data-name="Line 25" class="cls-8" x1="202.5" y1="394.5" x2="202.5" y2="449.5"/><line id="Line_36" data-name="Line 36" class="cls-8" x1="202.5" y1="339.5" x2="202.5" y2="394.5"/><line id="Line_23" data-name="Line 23" class="cls-8" x1="1.5" y1="449.5" x2="1.5" y2="504.5"/><line id="Line_26" data-name="Line 26" class="cls-8" x1="202.5" y1="449.5" x2="202.5" y2="504.5"/><line id="Line_17" data-name="Line 17" class="cls-2" x1="548.5" y1="171.5" x2="954.5" y2="171.5"/><path id="Path_259" data-name="Path 259" class="cls-8" d="M1071.68,452.34v-102" transform="translate(-421.18 -280.84)"/><path id="Path_260" data-name="Path 260" class="cls-8" d="M1332.68,350.32v-55" transform="translate(-421.18 -280.84)"/><path id="Path_258" data-name="Path 258" class="cls-8" d="M1375.68,350.34l-304,0" transform="translate(-421.18 -280.84)"/><path id="Path_261" data-name="Path 261" class="cls-8" d="M1375.68,295.34l-43,0" transform="translate(-421.18 -280.84)"/><g id="Rectangle_863" data-name="Rectangle 863"><path class="cls-4" d="M1186.18,335.84h95a14,14,0,0,1,14,14h0a14,14,0,0,1-14,14h-95a14,14,0,0,1-14-14h0A14,14,0,0,1,1186.18,335.84Z" transform="translate(-421.18 -280.84)"/><path class="cls-2" d="M1186.18,337.34h95a12.5,12.5,0,0,1,12.5,12.5h0a12.49,12.49,0,0,1-12.5,12.5h-95a12.5,12.5,0,0,1-12.5-12.5h0A12.5,12.5,0,0,1,1186.18,337.34Z" transform="translate(-421.18 -280.84)"/></g><g id="Rectangle_864" data-name="Rectangle 864"><path class="cls-4" d="M1186.68,437.84h94a14.5,14.5,0,0,1,14.5,14.5h0a14.5,14.5,0,0,1-14.5,14.5h-94a14.5,14.5,0,0,1-14.5-14.5h0A14.5,14.5,0,0,1,1186.68,437.84Z" transform="translate(-421.18 -280.84)"/><path class="cls-2" d="M1186.68,439.34h94a13,13,0,0,1,13,13h0a13,13,0,0,1-13,13h-94a13,13,0,0,1-13-13h0A13,13,0,0,1,1186.68,439.34Z" transform="translate(-421.18 -280.84)"/></g><g id="Contact" class="cls-5"><text class="cls-6" transform="translate(661.31 345)">Contact</text></g><g id="About" class="cls-5"><text class="cls-6" transform="translate(870.47 345)">About</text></g><g id="Login" class="cls-5"><text class="cls-6" transform="translate(792.7 178)">Login</text></g><g id="Checkout" class="cls-5"><text class="cls-6" transform="translate(778.14 75)">Checkout</text></g><g id="Sign_Up" data-name="Sign Up" class="cls-5"><text class="cls-7" transform="translate(987.49 178)">Sign Up</text></g><g id="Shipping" class="cls-5"><text class="cls-7" transform="translate(983.56 21)">Shipping</text></g><g id="Payment" class="cls-5"><text class="cls-7" transform="translate(983.04 75)">Payment</text></g><g id="Contact_Form" data-name="Contact Form" class="cls-5"><text class="cls-7" transform="translate(639.56 400)">Contact Form</text></g><g id="Siamese_2" data-name="Siamese 2" class="cls-5"><text class="cls-7" transform="translate(449.25 400)">Siamese 2</text></g><g id="Siamese_3" data-name="Siamese 3" class="cls-5"><text class="cls-7" transform="translate(449.25 455)">Siamese 3</text></g></g></svg>