<?xml version="1.0" encoding="utf-8"?>
<!-- Generator: Adobe Illustrator 24.1.3, SVG Export Plug-In . SVG Version: 6.00 Build 0)  -->
<svg version="1.1" id="Layer_1" xmlns="http://www.w3.org/2000/svg" xmlns:xlink="http://www.w3.org/1999/xlink" x="0px" y="0px"
	 viewBox="0 0 616.3 131.8" style="enable-background:new 0 0 616.3 131.8;" xml:space="preserve">
<style type="text/css">
	.st0{fill:#F7CD86;}
	.st1{fill:#FAABAA;}
	.st2{fill:#7EAEDE;}
	.st3{fill:#B99FE0;}
</style>
<g transform="translate(2.857 2.874)">
	<path class="st0" d="M54.9,3.3c10-1.7,19.4,5,21.1,15l0,0l14.2,83.6c1.7,10-5,19.4-15,21.1s-19.4-5-21.1-15L39.9,24.3
		C38.2,14.4,44.9,4.9,54.9,3.3C54.9,3.3,54.9,3.3,54.9,3.3z"/>
	<path class="st0" d="M105.8,3.3c10-1.7,19.4,5,21.1,15l0,0l14.2,83.6c1.7,10-5,19.4-15,21.1s-19.4-5-21.1-15L90.8,24.3
		C89.1,14.4,95.8,4.9,105.8,3.3C105.8,3.3,105.8,3.3,105.8,3.3z"/>
	<path class="st1" d="M57,0.8l17,7.5c4.5,2,6.6,7.3,4.6,11.9L34.2,120.7c-2,4.5-7.3,6.6-11.9,4.6l-17-7.5c-4.5-2-6.6-7.3-4.6-11.9
		L45.1,5.4C47.1,0.8,52.4-1.2,57,0.8z"/>
	<path class="st2" d="M116.2,4.5c9.2,4.1,13.4,14.9,9.4,24.1l0,0l-36.8,83.6c-4.1,9.2-14.9,13.4-24.1,9.4
		c-9.2-4.1-13.4-14.9-9.4-24.1l36.8-83.6C96.2,4.6,107,0.4,116.2,4.5C116.2,4.5,116.2,4.5,116.2,4.5z"/>
	<path class="st3" d="M158.6,0.8l17,7.5c4.5,2,6.6,7.3,4.6,11.9l-44.3,100.6c-2,4.5-7.3,6.6-11.9,4.6l-17-7.5
		c-4.5-2-6.6-7.3-4.6-11.9L146.7,5.4C148.7,0.8,154.1-1.2,158.6,0.8z"/>
	<path d="M208.9,40.6c0.1-0.6,0.6-1.1,1.2-1.1h0.9c0.7-0.1,1.3,0.4,1.5,1l15,32.3c1.2,2.6,2.6,6,2.6,6h0.3c0,0,1.4-3.4,2.6-6
		l15-32.3c0.2-0.6,0.9-1.1,1.5-1h0.9c0.7,0,1.2,0.5,1.3,1.2c0,0,0,0,0,0.1l4.1,50.4c0,0.9-0.4,1.4-1.3,1.4h-0.7
		c-0.7,0-1.2-0.5-1.3-1.2c0,0,0,0,0-0.1l-3.2-39.2c-0.2-2.6-0.2-7-0.2-7h-0.1c0,0-1.5,4.5-2.7,7l-13.8,29.1c-0.2,0.6-0.8,1.1-1.5,1
		h-1.2c-0.7,0.1-1.3-0.4-1.5-1L214.5,52c-1.1-2.5-2.8-7.2-2.8-7.2h-0.2c0,0,0,4.6-0.2,7.2l-3.2,39.2c0,0.7-0.5,1.2-1.2,1.2
		c0,0-0.1,0-0.1,0H206c-0.9,0-1.3-0.5-1.3-1.4L208.9,40.6z"/>
	<path d="M282.2,40.5c0.1-0.7,0.8-1.1,1.4-1.1h1.4c0.7,0,1.3,0.4,1.4,1.1l18.9,50.4c0.3,0.9,0,1.5-1.1,1.5h-0.8
		c-0.7,0-1.2-0.4-1.4-1L295.5,74H273l-6.4,17.3c-0.2,0.7-0.8,1.1-1.4,1.1h-0.8c-1,0-1.4-0.6-1.1-1.5L282.2,40.5z M294.3,71.1
		l-8.1-21.5c-0.8-2.3-2-6.4-2-6.4H284c0,0-1.1,4.1-2,6.4l-8.1,21.5L294.3,71.1z"/>
	<path d="M322.6,69.4l-17-28.5c-0.5-0.8-0.2-1.5,0.9-1.5h0.9c0.6,0,1.2,0.3,1.5,0.8l12,20.1c1.5,2.6,3.3,6.1,3.3,6.1h0.1
		c0,0,1.7-3.4,3.2-6.1l12-20.1c0.3-0.5,0.9-0.8,1.5-0.8h0.9c1.1,0,1.4,0.7,0.9,1.5l-17,28.4v21.8c0.1,0.6-0.4,1.2-1,1.3
		c-0.1,0-0.2,0-0.3,0h-0.8c-0.6,0.1-1.2-0.4-1.3-1c0-0.1,0-0.2,0-0.3L322.6,69.4z"/>
	<path d="M352.6,40.7c-0.1-0.6,0.4-1.2,1-1.3c0.1,0,0.2,0,0.3,0h0.8c0.6,0,1.2,0.3,1.6,0.8L385.8,81c1.7,2.4,4.3,6.7,4.3,6.7h0.1
		c0,0-0.4-4.1-0.4-6.7V40.7c-0.1-0.6,0.4-1.2,1-1.3c0.1,0,0.2,0,0.3,0h0.7c0.6-0.1,1.2,0.4,1.3,1c0,0.1,0,0.2,0,0.3v50.4
		c0.1,0.6-0.4,1.2-1,1.3c-0.1,0-0.2,0-0.3,0h-0.8c-0.6,0-1.2-0.3-1.6-0.8L360,50.8c-1.7-2.4-4.3-6.7-4.3-6.7h-0.2
		c0,0,0.4,4.1,0.4,6.7v40.3c0.1,0.6-0.4,1.2-1,1.3c-0.1,0-0.2,0-0.3,0h-0.7c-0.6,0.1-1.2-0.4-1.3-1c0-0.1,0-0.2,0-0.3L352.6,40.7z"
		/>
	<path d="M432.1,38.5c14.6-0.2,26.6,11.4,26.8,26c0,0.3,0,0.7,0,1c0,15.6-11.6,27.8-26.8,27.8c-15.2,0-26.8-12.2-26.8-27.8
		c-0.3-14.6,11.2-26.7,25.8-27C431.4,38.5,431.7,38.5,432.1,38.5z M432.1,90.2c13.4,0,23.4-10.8,23.4-24.7c0.8-12.9-9.1-24-22-24.7
		c-12.9-0.8-24,9.1-24.7,22c-0.1,0.9-0.1,1.8,0,2.7C408.7,79.5,418.7,90.3,432.1,90.2L432.1,90.2z"/>
	<path d="M494,38.5c14.6-0.2,26.6,11.4,26.8,26c0,0.3,0,0.7,0,1c0,15.6-11.6,27.8-26.8,27.8s-26.8-12.2-26.8-27.8
		c-0.3-14.6,11.2-26.7,25.8-27C493.3,38.5,493.7,38.5,494,38.5L494,38.5z M494,90.2c13.4,0,23.4-10.8,23.4-24.7
		c0.8-12.9-9.1-24-22-24.7c-12.9-0.8-24,9.1-24.7,22c-0.1,0.9-0.1,1.8,0,2.7C470.6,79.5,480.6,90.3,494,90.2L494,90.2z"/>
	<path d="M541.8,42.5h-18.5c-0.6,0.1-1.2-0.4-1.3-1c0-0.1,0-0.2,0-0.3v-0.4c-0.1-0.6,0.4-1.2,1-1.3c0.1,0,0.2,0,0.3,0h40.2
		c0.6-0.1,1.2,0.4,1.3,1c0,0.1,0,0.2,0,0.3v0.4c0.1,0.6-0.4,1.2-1,1.3c-0.1,0-0.2,0-0.3,0h-18.4v48.7c0.1,0.6-0.4,1.2-1,1.3
		c-0.1,0-0.2,0-0.3,0h-0.7c-0.6,0.1-1.2-0.4-1.3-1c0-0.1,0-0.2,0-0.3L541.8,42.5z"/>
	<path d="M573.3,40.7c-0.1-0.6,0.4-1.2,1-1.3c0.1,0,0.2,0,0.3,0h0.7c0.6-0.1,1.2,0.4,1.3,1c0,0.1,0,0.2,0,0.3v23.6h33.6V40.7
		c-0.1-0.6,0.4-1.2,1-1.3c0.1,0,0.2,0,0.2,0h0.8c0.6-0.1,1.2,0.4,1.3,1c0,0.1,0,0.2,0,0.3v50.4c0.1,0.6-0.4,1.2-1,1.3
		c-0.1,0-0.2,0-0.3,0h-0.7c-0.6,0.1-1.2-0.4-1.3-1.1c0-0.1,0-0.2,0-0.2V67.4h-33.7v23.8c0.1,0.6-0.4,1.2-1,1.3c-0.1,0-0.2,0-0.3,0
		h-0.7c-0.6,0.1-1.2-0.4-1.3-1c0-0.1,0-0.2,0-0.3L573.3,40.7z"/>
</g>
</svg>
